<?xml version="1.0" standalone="no"?>
<!DOCTYPE svg PUBLIC "-//W3C//DTD SVG 20010904//EN"
 "http://www.w3.org/TR/2001/REC-SVG-20010904/DTD/svg10.dtd">
<svg version="1.0" xmlns="http://www.w3.org/2000/svg"
 width="707.000000pt" height="707.000000pt" viewBox="0 0 707.000000 707.000000"
 preserveAspectRatio="xMidYMid meet">
<metadata>
Created by potrace 1.14, written by Peter Selinger 2001-2017
</metadata>
<g transform="translate(0.000000,707.000000) scale(0.100000,-0.100000)"
fill="#000000" stroke="none">
<path d="M2883 5314 c-16 -24 -16 -28 1 -59 10 -18 35 -47 55 -63 20 -17 77
-64 126 -104 63 -52 115 -107 172 -184 46 -60 83 -116 83 -125 0 -21 -16 -33
-62 -48 -32 -11 -95 -67 -99 -89 -21 -101 30 -182 112 -182 22 0 39 -3 39 -8
0 -4 -21 -18 -47 -32 -96 -50 -137 -100 -157 -193 l-7 -28 -30 18 c-54 32
-100 85 -195 230 -98 149 -127 177 -214 208 -25 9 -65 18 -90 20 -25 2 -48 4
-52 4 -19 2 -88 75 -160 168 -43 56 -87 105 -98 108 -32 10 -80 -28 -80 -64 0
-11 132 -189 176 -238 16 -18 54 -48 84 -68 35 -24 64 -53 82 -85 15 -27 31
-51 36 -54 4 -2 8 19 8 47 -1 56 5 61 56 44 17 -5 28 -18 32 -35 14 -59 39
-132 46 -132 3 0 13 14 21 31 l15 31 54 -83 c88 -134 142 -193 222 -241 68
-41 73 -47 73 -79 0 -33 -1 -34 -35 -31 -19 1 -48 7 -65 12 -34 11 -293 71
-433 100 -117 25 -200 38 -277 45 -33 3 -70 7 -82 9 -12 3 -66 8 -121 11 -56
4 -118 9 -139 12 -90 10 -510 13 -548 3 -154 -41 -233 -142 -230 -295 1 -67 4
-75 49 -142 43 -65 183 -212 261 -276 44 -36 173 -112 230 -136 59 -24 183
-56 280 -71 69 -11 208 -14 353 -7 40 2 74 1 77 -2 2 -4 -17 -36 -41 -73 -87
-130 -225 -232 -355 -262 -68 -16 -227 -14 -289 4 -60 18 -62 18 -87 2 -28
-18 -36 -42 -24 -75 28 -72 329 -97 479 -39 15 5 15 3 -1 -22 -10 -15 -16 -30
-14 -32 3 -3 27 5 53 17 31 14 79 53 132 107 l83 85 -6 -46 c-4 -26 -3 -47 2
-47 26 0 81 89 113 184 11 32 37 86 58 120 21 33 44 75 51 92 10 25 29 40 84
67 40 20 175 97 302 171 126 74 233 132 237 129 5 -2 0 -16 -10 -31 -18 -27
-29 -53 -72 -164 -15 -40 -33 -66 -58 -85 -21 -15 -39 -30 -42 -33 -3 -3 -36
-28 -75 -56 -171 -121 -208 -197 -230 -469 -3 -38 -8 -88 -10 -110 -3 -22 -7
-62 -10 -90 -10 -93 -15 -115 -50 -223 -21 -67 -49 -129 -72 -162 -76 -108
-229 -207 -389 -251 -43 -12 -97 -27 -118 -33 -22 -6 -48 -23 -59 -37 -18 -25
-18 -28 -3 -52 27 -41 56 -42 191 -8 95 24 245 97 342 167 l22 16 -14 -51 c-7
-28 -9 -51 -4 -51 4 0 23 13 42 30 41 35 89 123 112 203 17 60 26 66 32 22 2
-14 8 -35 12 -48 8 -20 11 -18 31 27 22 48 29 122 20 216 -1 19 4 69 13 110 9
41 18 102 21 135 3 33 8 83 11 110 2 28 7 81 10 118 10 113 15 128 62 209 30
51 38 59 61 56 16 -2 26 -8 24 -16 -20 -100 -31 -267 -21 -341 4 -31 10 -81
13 -112 12 -106 74 -337 116 -434 10 -22 27 -61 38 -87 35 -81 141 -235 196
-285 78 -71 137 -98 216 -97 50 0 76 6 115 26 100 52 204 176 287 343 32 64
104 251 113 293 2 9 9 40 15 67 18 77 19 84 34 175 22 143 18 364 -10 453 -4
13 0 17 21 17 20 0 33 -12 64 -59 44 -69 61 -150 75 -376 4 -60 20 -172 30
-210 3 -11 10 -38 16 -60 6 -22 13 -77 14 -122 3 -75 30 -173 47 -173 4 0 10
16 14 36 l6 36 20 -20 c10 -12 19 -26 19 -32 0 -41 99 -188 142 -211 15 -8 15
-5 6 27 -5 20 -8 38 -5 40 2 2 37 -16 78 -41 73 -44 228 -105 305 -120 85 -16
98 -15 121 7 50 47 11 97 -92 117 -213 43 -422 179 -492 321 -53 109 -85 236
-98 388 -6 65 -15 171 -21 227 -12 130 -58 247 -117 304 -18 16 -81 68 -142
114 -118 89 -118 90 -166 214 -17 45 -38 88 -45 94 -13 10 -20 39 -10 39 4 0
50 -26 276 -158 174 -102 225 -129 276 -151 42 -18 55 -30 70 -63 10 -23 43
-78 72 -122 30 -45 62 -102 73 -128 23 -59 59 -117 89 -143 l23 -20 -6 38 c-3
20 -2 37 3 37 5 0 40 -29 77 -65 37 -36 92 -77 121 -91 56 -26 74 -26 52 1
-19 23 -9 26 45 12 61 -15 223 -14 290 2 109 27 137 57 106 114 -14 24 -37 34
-66 27 -5 -1 -28 -7 -50 -13 -69 -17 -224 -16 -291 3 -92 25 -181 80 -255 157
-60 62 -129 155 -129 174 0 4 28 6 63 3 274 -19 514 14 687 94 171 78 410 296
485 441 25 50 27 145 2 211 -35 97 -112 156 -235 180 -57 12 -386 9 -522 -4
-25 -2 -90 -7 -145 -11 -55 -3 -111 -8 -125 -10 -14 -2 -47 -7 -75 -10 -103
-11 -141 -16 -165 -22 -14 -4 -32 -7 -40 -8 -32 -3 -103 -19 -343 -76 -136
-33 -252 -59 -257 -59 -6 0 -10 15 -10 34 0 31 6 38 64 75 77 48 137 107 191
187 21 33 47 69 57 82 l17 23 15 -28 14 -28 11 27 c6 15 18 53 27 85 18 66 28
79 67 88 26 7 27 6 28 -36 1 -24 1 -53 0 -64 -2 -18 0 -18 18 5 11 14 28 42
37 63 14 29 30 44 70 63 28 13 72 45 97 70 60 60 166 199 183 241 14 32 13 35
-10 58 -47 47 -60 39 -180 -117 -83 -108 -121 -139 -178 -142 -57 -4 -94 -14
-148 -41 -59 -30 -81 -56 -183 -211 -85 -130 -166 -218 -196 -212 -8 2 -18 17
-22 34 -14 69 -65 128 -146 169 -59 29 -67 44 -25 43 89 -3 154 98 118 183
-13 32 -66 88 -84 90 -48 5 -90 41 -74 63 5 6 41 54 80 106 75 101 124 151
237 239 119 93 150 144 114 187 -18 22 -73 17 -95 -7 -10 -12 -62 -57 -115
-100 -124 -100 -161 -139 -249 -258 l-73 -97 -56 11 c-43 9 -67 9 -104 -1 -57
-15 -48 -21 -154 121 -58 79 -137 158 -233 232 -36 28 -78 65 -94 82 -39 41
-88 43 -113 5z"/>
</g>
</svg>
